HIERARCHY
ROOT mixamorig:Hips
{
	OFFSET 0.000000 3.528733 0.000000
	CHANNELS 6 Xposition Yposition Zposition Xrotation Yrotation Zrotation
	JOINT mixamorig:Spine
	{
		OFFSET 0.000000 0.284700 -0.015200
		CHANNELS 3 Xrotation Yrotation Zrotation
		JOINT mixamorig:Spine1
		{
			OFFSET 0.000000 0.332125 -0.017771
			CHANNELS 3 Xrotation Yrotation Zrotation
			JOINT mixamorig:Spine2
			{
				OFFSET 0.000000 0.379557 -0.020309
				CHANNELS 3 Xrotation Yrotation Zrotation
				JOINT mixamorig:Neck
				{
					OFFSET 0.000000 0.426989 -0.022847
					CHANNELS 3 Xrotation Yrotation Zrotation
					JOINT mixamorig:Head
					{
						OFFSET 0.000000 0.288600 0.098000
						CHANNELS 3 Xrotation Yrotation Zrotation
						JOINT mixamorig:HeadTop_End
						{
							OFFSET 0.000000 0.712700 0.242000
							CHANNELS 3 Xrotation Yrotation Zrotation
							End Site
							{
								OFFSET 0.000000 0.752666 0.000000
							}
						}
					}
				}
				JOINT mixamorig:LeftShoulder
				{
					OFFSET 0.202600 0.346984 -0.022672
					CHANNELS 3 Xrotation Yrotation Zrotation
					JOINT mixamorig:LeftArm
					{
						OFFSET 0.427337 -0.109325 0.000307
						CHANNELS 3 Xrotation Yrotation Zrotation
						JOINT mixamorig:LeftForeArm
						{
							OFFSET 0.849600 0.000000 0.000000
							CHANNELS 3 Xrotation Yrotation Zrotation
							JOINT mixamorig:LeftHand
							{
								OFFSET 0.753900 0.000000 0.000000
								CHANNELS 3 Xrotation Yrotation Zrotation
								JOINT mixamorig:LeftHandThumb1
								{
									OFFSET 0.136012 -0.086473 0.045448
									CHANNELS 3 Xrotation Yrotation Zrotation
									JOINT mixamorig:LeftHandThumb2
									{
										OFFSET 0.103772 -0.059913 0.059913
										CHANNELS 3 Xrotation Yrotation Zrotation
										JOINT mixamorig:LeftHandThumb3
										{
											OFFSET 0.095779 -0.055298 0.055298
											CHANNELS 3 Xrotation Yrotation Zrotation
											JOINT mixamorig:LeftHandThumb4
											{
												OFFSET 0.073275 -0.042305 0.042305
												CHANNELS 3 Xrotation Yrotation Zrotation
												End Site
												{
													OFFSET 0.065698 -0.038445 0.056164
												}
											}
										}
									}
								}
								JOINT mixamorig:LeftHandIndex1
								{
									OFFSET 0.449965 -0.020370 0.085418
									CHANNELS 3 Xrotation Yrotation Zrotation
									JOINT mixamorig:LeftHandIndex2
									{
										OFFSET 0.102424 0.000000 -0.000000
										CHANNELS 3 Xrotation Yrotation Zrotation
										JOINT mixamorig:LeftHandIndex3
										{
											OFFSET 0.096306 0.000000 -0.000000
											CHANNELS 3 Xrotation Yrotation Zrotation
											JOINT mixamorig:LeftHandIndex4
											{
												OFFSET 0.078408 0.000000 -0.000000
												CHANNELS 3 Xrotation Yrotation Zrotation
												End Site
												{
													OFFSET 0.078400 -0.000010 -0.001100
												}
											}
										}
									}
								}
								JOINT mixamorig:LeftHandMiddle1
								{
									OFFSET 0.430485 0.000000 0.000000
									CHANNELS 3 Xrotation Yrotation Zrotation
									JOINT mixamorig:LeftHandMiddle2
									{
										OFFSET 0.112203 0.000000 0.000000
										CHANNELS 3 Xrotation Yrotation Zrotation
										JOINT mixamorig:LeftHandMiddle3
										{
											OFFSET 0.108209 0.000000 0.000000
											CHANNELS 3 Xrotation Yrotation Zrotation
											JOINT mixamorig:LeftHandMiddle4
											{
												OFFSET 0.087466 0.000000 0.000000
												CHANNELS 3 Xrotation Yrotation Zrotation
												End Site
												{
													OFFSET 0.087400 -0.000057 -0.003400
												}
											}
										}
									}
								}
								JOINT mixamorig:LeftHandRing1
								{
									OFFSET 0.364574 -0.002440 -0.092011
									CHANNELS 3 Xrotation Yrotation Zrotation
									JOINT mixamorig:LeftHandRing2
									{
										OFFSET 0.114832 0.000000 0.000000
										CHANNELS 3 Xrotation Yrotation Zrotation
										JOINT mixamorig:LeftHandRing3
										{
											OFFSET 0.104409 0.000000 0.000000
											CHANNELS 3 Xrotation Yrotation Zrotation
											JOINT mixamorig:LeftHandRing4
											{
												OFFSET 0.080424 0.000000 0.000000
												CHANNELS 3 Xrotation Yrotation Zrotation
												End Site
												{
													OFFSET 0.080200 -0.000053 -0.006000
												}
											}
										}
									}
								}
								JOINT mixamorig:LeftHandPinky1
								{
									OFFSET 0.312269 -0.016255 -0.171399
									CHANNELS 3 Xrotation Yrotation Zrotation
									JOINT mixamorig:LeftHandPinky2
									{
										OFFSET 0.087028 0.000000 0.000000
										CHANNELS 3 Xrotation Yrotation Zrotation
										JOINT mixamorig:LeftHandPinky3
										{
											OFFSET 0.073733 0.000000 0.000000
											CHANNELS 3 Xrotation Yrotation Zrotation
											JOINT mixamorig:LeftHandPinky4
											{
												OFFSET 0.056250 0.000000 0.000000
												CHANNELS 3 Xrotation Yrotation Zrotation
												End Site
												{
													OFFSET 0.056100 -0.000056 -0.004100
												}
											}
										}
									}
								}
							}
						}
					}
				}
				JOINT mixamorig:RightShoulder
				{
					OFFSET -0.202600 0.346968 -0.022971
					CHANNELS 3 Xrotation Yrotation Zrotation
					JOINT mixamorig:RightArm
					{
						OFFSET -0.427342 -0.109309 -0.000307
						CHANNELS 3 Xrotation Yrotation Zrotation
						JOINT mixamorig:RightForeArm
						{
							OFFSET -0.849600 0.000000 -0.000000
							CHANNELS 3 Xrotation Yrotation Zrotation
							JOINT mixamorig:RightHand
							{
								OFFSET -0.753900 0.000000 -0.000000
								CHANNELS 3 Xrotation Yrotation Zrotation
								JOINT mixamorig:RightHandThumb1
								{
									OFFSET -0.139217 -0.077736 0.046135
									CHANNELS 3 Xrotation Yrotation Zrotation
									JOINT mixamorig:RightHandThumb2
									{
										OFFSET -0.102889 -0.059403 0.059403
										CHANNELS 3 Xrotation Yrotation Zrotation
										JOINT mixamorig:RightHandThumb3
										{
											OFFSET -0.097122 -0.056073 0.056073
											CHANNELS 3 Xrotation Yrotation Zrotation
											JOINT mixamorig:RightHandThumb4
											{
												OFFSET -0.076714 -0.044291 0.044291
												CHANNELS 3 Xrotation Yrotation Zrotation
												End Site
												{
													OFFSET -0.072157 -0.042014 0.053259
												}
											}
										}
									}
								}
								JOINT mixamorig:RightHandIndex1
								{
									OFFSET -0.450325 -0.003448 0.076701
									CHANNELS 3 Xrotation Yrotation Zrotation
									JOINT mixamorig:RightHandIndex2
									{
										OFFSET -0.104343 0.000000 -0.000000
										CHANNELS 3 Xrotation Yrotation Zrotation
										JOINT mixamorig:RightHandIndex3
										{
											OFFSET -0.097003 0.000000 -0.000000
											CHANNELS 3 Xrotation Yrotation Zrotation
											JOINT mixamorig:RightHandIndex4
											{
												OFFSET -0.081630 0.000000 -0.000000
												CHANNELS 3 Xrotation Yrotation Zrotation
												End Site
												{
													OFFSET -0.081600 -0.000082 -0.002198
												}
											}
										}
									}
								}
								JOINT mixamorig:RightHandMiddle1
								{
									OFFSET -0.397234 0.000000 -0.000000
									CHANNELS 3 Xrotation Yrotation Zrotation
									JOINT mixamorig:RightHandMiddle2
									{
										OFFSET -0.115313 0.000000 -0.000000
										CHANNELS 3 Xrotation Yrotation Zrotation
										JOINT mixamorig:RightHandMiddle3
										{
											OFFSET -0.121324 0.000000 -0.000000
											CHANNELS 3 Xrotation Yrotation Zrotation
											JOINT mixamorig:RightHandMiddle4
											{
												OFFSET -0.103502 0.000000 0.000000
												CHANNELS 3 Xrotation Yrotation Zrotation
												End Site
												{
													OFFSET -0.103400 -0.000083 -0.004599
												}
											}
										}
									}
								}
								JOINT mixamorig:RightHandRing1
								{
									OFFSET -0.356229 0.006227 -0.097026
									CHANNELS 3 Xrotation Yrotation Zrotation
									JOINT mixamorig:RightHandRing2
									{
										OFFSET -0.116123 0.000000 0.000000
										CHANNELS 3 Xrotation Yrotation Zrotation
										JOINT mixamorig:RightHandRing3
										{
											OFFSET -0.105608 0.000000 0.000000
											CHANNELS 3 Xrotation Yrotation Zrotation
											JOINT mixamorig:RightHandRing4
											{
												OFFSET -0.089388 0.000000 0.000000
												CHANNELS 3 Xrotation Yrotation Zrotation
												End Site
												{
													OFFSET -0.089200 -0.000198 -0.005797
												}
											}
										}
									}
								}
								JOINT mixamorig:RightHandPinky1
								{
									OFFSET -0.319258 -0.005155 -0.189362
									CHANNELS 3 Xrotation Yrotation Zrotation
									JOINT mixamorig:RightHandPinky2
									{
										OFFSET -0.084919 0.000000 0.000000
										CHANNELS 3 Xrotation Yrotation Zrotation
										JOINT mixamorig:RightHandPinky3
										{
											OFFSET -0.068357 0.000000 0.000000
											CHANNELS 3 Xrotation Yrotation Zrotation
											JOINT mixamorig:RightHandPinky4
											{
												OFFSET -0.053427 0.000000 0.000000
												CHANNELS 3 Xrotation Yrotation Zrotation
												End Site
												{
													OFFSET -0.053400 -0.000117 -0.001696
												}
											}
										}
									}
								}
							}
						}
					}
				}
			}
		}
	}
	JOINT mixamorig:LeftUpLeg
	{
		OFFSET 0.302300 -0.158000 -0.006800
		CHANNELS 3 Xrotation Yrotation Zrotation
		JOINT mixamorig:LeftLeg
		{
			OFFSET -0.021195 -1.512800 -0.072827
			CHANNELS 3 Xrotation Yrotation Zrotation
			JOINT mixamorig:LeftFoot
			{
				OFFSET 0.021196 -1.499076 -0.232845
				CHANNELS 3 Xrotation Yrotation Zrotation
				JOINT mixamorig:LeftToeBase
				{
					OFFSET 0.176214 -0.335644 0.384848
					CHANNELS 3 Xrotation Yrotation Zrotation
					JOINT mixamorig:LeftToe_End
					{
						OFFSET 0.078950 -0.008059 0.195507
						CHANNELS 3 Xrotation Yrotation Zrotation
						End Site
						{
							OFFSET 0.078950 -0.008059 0.195507
						}
					}
				}
			}
		}
	}
	JOINT mixamorig:RightUpLeg
	{
		OFFSET -0.302300 -0.158000 -0.006600
		CHANNELS 3 Xrotation Yrotation Zrotation
		JOINT mixamorig:RightLeg
		{
			OFFSET 0.021196 -1.512831 -0.074247
			CHANNELS 3 Xrotation Yrotation Zrotation
			JOINT mixamorig:RightFoot
			{
				OFFSET -0.021196 -1.499093 -0.231430
				CHANNELS 3 Xrotation Yrotation Zrotation
				JOINT mixamorig:RightToeBase
				{
					OFFSET -0.176206 -0.335620 0.376547
					CHANNELS 3 Xrotation Yrotation Zrotation
					JOINT mixamorig:RightToe_End
					{
						OFFSET -0.078935 -0.008056 0.196268
						CHANNELS 3 Xrotation Yrotation Zrotation
						End Site
						{
							OFFSET -0.078935 -0.008056 0.196268
						}
					}
				}
			}
		}
	}
}
MOTION
Frames: 6
Frame Time: 0.016667
0.183318 3.445391 2.999525 0.452336 -2.400534 5.995271 3.769444 -0.289141 -0.983819 1.351433 -0.592389 -1.437455 -3.147362 -0.580178 -1.956844 -4.080610 0.612147 -3.328782 -1.745368 0.955202 -1.325760 0.000000 0.000000 0.000000 5.926368 -14.668536 -7.340533 7.616807 2.076396 -69.813986 -0.000007 -28.059809 -0.000010 36.280336 -5.599650 0.142381 26.428988 6.873443 32.372532 -2.577006 28.005015 -15.994128 8.481334 -13.248114 5.368753 -0.000003 0.000002 0.000001 9.034134 1.451038 -8.327414 0.266830 2.469039 -16.855529 -0.020201 0.182460 -3.890023 -0.000000 -0.000000 -0.000000 0.486432 7.221422 -15.570147 0.604118 3.425244 -26.904887 0.265822 1.827824 -15.789480 0.000000 0.000002 -0.000001 0.678054 7.644753 -33.037324 0.409834 1.971476 -16.855507 0.289023 1.181729 -12.266856 -0.000000 -0.000001 0.000003 3.195386 13.055979 -30.504765 0.485422 2.676698 -29.057428 0.073989 1.525999 -6.680802 -0.000002 -0.000001 -0.000002 -0.416284 9.811124 0.184676 4.956122 7.755897 74.624693 0.000019 43.968776 0.000005 35.779427 25.584657 -23.097755 16.269850 -7.457805 -13.670394 4.316181 -4.437746 -15.008776 -13.812624 7.640814 9.053341 0.000002 -0.000003 -0.000004 -0.731518 1.511536 8.591750 0.624764 -3.369098 26.469271 -0.170607 -0.561829 17.156955 0.000000 0.000001 0.000002 -0.683869 -4.014377 20.766804 1.184595 -4.374497 38.079322 0.823128 -3.077352 31.104835 0.000000 0.000000 -0.000003 1.536044 -9.004170 39.076106 0.720835 -2.608105 23.952746 -0.128719 -0.225398 20.368155 0.000002 -0.000000 0.000001 2.725310 -10.601925 44.462308 1.619580 -4.339430 49.189462 -0.375182 -2.614203 43.366059 -0.000001 -0.000002 0.000001 -12.893506 7.574930 -8.765797 18.803408 -1.848874 -0.225299 -3.918115 -1.048429 4.675083 -4.046088 0.000002 -0.000001 -0.000000 -0.000002 -0.000000 -30.102242 -1.944439 -6.047984 56.432109 9.195429 -4.594499 7.809983 -14.242005 5.466157 0.225049 0.000007 0.000002 -0.000002 0.000002 0.000001 
0.178559 3.449490 3.093577 0.735597 -1.569876 5.461824 3.408795 -0.548511 -0.650601 1.389718 -1.139698 -1.255932 -3.121261 -1.119595 -1.793047 -3.846645 0.672510 -3.220200 -1.582442 1.431655 -1.428850 0.000000 -0.000000 -0.000000 6.049560 -15.812807 -6.453438 6.719929 0.362998 -69.044005 0.000012 -29.171847 -0.000002 35.216612 -6.014601 2.674653 26.504788 6.891835 32.006905 -2.831646 27.682098 -15.755633 8.815003 -13.407684 6.979130 -0.000004 -0.000003 -0.000008 8.936393 1.550935 -6.426904 0.267491 2.471238 -16.878439 -0.020126 0.184823 -3.913242 -0.000000 -0.000000 0.000000 0.440927 7.062465 -14.458126 0.601996 3.420877 -26.856290 0.264374 1.823178 -15.740712 -0.000003 0.000001 0.000000 0.685943 7.634611 -32.140982 0.409819 1.971444 -16.855138 0.289006 1.181719 -12.266694 -0.000001 -0.000001 0.000002 2.970063 12.816808 -29.616933 0.488093 2.682638 -29.122236 0.075172 1.532423 -6.745523 -0.000002 -0.000004 0.000002 -0.464616 9.583759 0.649406 5.952083 5.858850 74.926513 0.000005 42.548264 -0.000025 37.845081 25.147577 -22.657167 16.538489 -7.392724 -13.444604 4.377833 -4.291207 -15.127522 -13.783674 7.545787 9.061355 0.000001 -0.000002 -0.000001 -0.696254 1.363131 8.469277 0.630403 -3.380343 26.594260 -0.169369 -0.574794 17.281565 0.000000 -0.000002 -0.000001 -0.600152 -4.189599 20.449660 1.183647 -4.373210 38.063415 0.822340 -3.076064 31.089764 0.000001 0.000002 -0.000000 1.535338 -9.003973 38.950813 0.719694 -2.606069 23.929481 -0.129056 -0.223053 20.344885 -0.000001 -0.000004 -0.000001 2.716308 -10.591964 44.437450 1.624376 -4.344342 49.257671 -0.372666 -2.621460 43.433941 -0.000000 -0.000001 0.000002 -11.197001 7.986363 -8.092511 18.387631 -3.445831 -0.337570 -5.009554 -1.118461 4.801262 -4.453237 0.000000 0.000006 0.000000 0.000002 -0.000000 -32.456571 -2.053874 -5.164759 52.135671 9.378150 -4.515453 7.354059 -15.180435 5.815012 0.698213 -0.000005 0.000004 -0.000004 0.000002 -0.000001 
0.171106 3.452631 3.186301 0.930201 -0.594066 4.719031 3.136099 -0.795050 -0.285774 1.434519 -1.659389 -1.029496 -3.090313 -1.636534 -1.586522 -3.675357 0.663633 -3.057573 -1.413794 1.651514 -1.353946 -0.000000 0.000000 -0.000000 6.246585 -17.189069 -5.275314 5.885167 -0.606234 -68.413026 -0.000007 -30.738901 0.000016 34.005125 -7.027955 4.282202 26.582161 6.922106 31.627536 -3.088536 27.340568 -15.551986 8.954108 -13.607584 7.671287 -0.000001 0.000000 -0.000001 8.768148 1.643536 -5.141621 0.267533 2.471343 -16.879546 -0.020099 0.184962 -3.914639 0.000001 0.000000 0.000000 0.427250 7.014745 -13.872963 0.601240 3.419308 -26.838679 0.263840 1.821485 -15.723128 -0.000001 0.000001 -0.000001 0.683748 7.617496 -31.618370 0.409822 1.971461 -16.855283 0.289007 1.181738 -12.267097 0.000001 -0.000001 0.000000 2.868338 12.710134 -29.181618 0.489579 2.685962 -29.158463 0.075834 1.535996 -6.781668 -0.000001 -0.000000 0.000002 -0.539402 8.923899 1.286028 6.909148 4.226811 74.997164 -0.000006 40.800712 0.000014 39.596977 24.461385 -21.980922 16.614729 -7.563503 -13.434069 4.530356 -4.056489 -15.193119 -13.747128 7.425986 9.071691 -0.000001 -0.000002 -0.000005 -0.622463 1.235503 8.005606 0.631196 -3.381900 26.611407 -0.169225 -0.576577 17.298694 -0.000001 -0.000001 -0.000000 -0.498236 -4.362477 19.772708 1.183108 -4.372524 38.054638 0.821944 -3.075400 31.081869 0.000002 -0.000002 -0.000001 1.562796 -9.044241 38.610076 0.715768 -2.599169 23.850143 -0.130113 -0.214985 20.265690 0.000001 0.000002 0.000003 2.798662 -10.723483 43.993488 1.619670 -4.339539 49.190602 -0.375118 -2.614320 43.367210 0.000002 -0.000003 0.000000 -9.535874 8.426103 -7.094497 18.038255 -5.211499 -0.443035 -6.009326 -1.167908 4.876301 -4.926969 -0.000001 0.000004 -0.000000 0.000000 0.000000 -34.726775 -2.553507 -4.234908 47.169358 9.204453 -4.524817 7.977414 -16.783619 6.318992 -0.118633 -0.000003 -0.000001 -0.000001 -0.000005 0.000001 
0.162091 3.453629 3.280396 1.024880 0.411749 3.785980 2.863820 -1.022019 0.243534 1.577106 -2.209820 -0.842171 -2.969064 -2.181788 -1.425390 -3.699566 0.602860 -2.760781 -1.383547 1.839661 -1.266452 -0.000000 0.000000 0.000000 6.540301 -18.275298 -3.846214 4.847550 -1.608251 -67.796519 0.000024 -32.275598 0.000016 31.796901 -7.829661 4.841954 26.661087 6.963362 31.235439 -3.337142 26.988338 -15.420223 8.990696 -13.944448 7.905286 -0.000004 -0.000001 -0.000002 8.542279 1.739131 -4.321393 0.267568 2.471488 -16.880982 -0.020099 0.185130 -3.916210 -0.000000 -0.000000 -0.000000 0.422069 6.996687 -13.624399 0.601316 3.419444 -26.840388 0.263911 1.821656 -15.724842 0.000000 0.000000 0.000001 0.694680 7.631259 -31.359663 0.409839 1.971484 -16.855725 0.289036 1.181813 -12.267813 0.000001 -0.000001 0.000003 2.821236 12.653326 -29.016064 0.489920 2.686686 -29.166421 0.075965 1.536793 -6.789606 -0.000002 0.000001 -0.000003 -0.629815 8.141644 2.181326 7.905209 2.712154 74.784643 0.000008 38.997436 -0.000012 40.985602 23.573626 -20.951699 16.666143 -7.892659 -13.477909 4.703419 -3.660773 -15.290727 -13.702517 7.280084 9.084469 -0.000001 0.000000 -0.000001 -0.521789 1.173932 7.241746 0.633797 -3.387113 26.669309 -0.168634 -0.582598 17.356417 -0.000001 0.000004 0.000001 -0.396751 -4.506948 18.825760 1.182551 -4.371802 38.045486 0.821509 -3.074692 31.073686 -0.000001 0.000002 -0.000001 1.585513 -9.082251 38.015925 0.712251 -2.592907 23.778103 -0.131083 -0.207657 20.193809 -0.000000 -0.000002 0.000000 2.879684 -10.873394 43.326274 1.616906 -4.336697 49.151144 -0.376594 -2.610121 43.327933 0.000001 -0.000000 -0.000001 -7.951588 8.849232 -5.737347 17.944490 -7.011929 -0.510389 -7.018214 -1.932128 4.866943 -5.454143 -0.000003 0.000001 0.000000 -0.000003 0.000000 -36.799102 -3.355847 -3.264793 41.667494 9.162403 -4.528479 8.296516 -17.043660 6.688832 -1.087119 -0.000010 -0.000001 0.000001 -0.000003 -0.000001 
0.153865 3.452374 3.376708 1.244840 1.479108 3.062581 2.479645 -1.247874 0.506858 1.721539 -2.668876 -0.628933 -2.838248 -2.644848 -1.243121 -3.788225 0.496144 -2.442652 -1.340926 1.863257 -1.259701 -0.000000 -0.000000 -0.000000 6.841638 -19.439859 -2.490266 3.932014 -2.229650 -66.954487 -0.000005 -33.874719 0.000007 30.493547 -10.321195 6.540352 26.741572 7.014742 30.831710 -3.570301 26.632591 -15.387354 9.041271 -14.469288 8.216094 -0.000002 -0.000003 -0.000003 8.279871 1.841326 -3.706398 0.267494 2.471267 -16.878646 -0.020100 0.184900 -3.914024 0.000000 -0.000001 0.000001 0.405572 6.927497 -13.452871 0.601919 3.420685 -26.854091 0.264296 1.822933 -15.738165 -0.000001 0.000001 0.000001 0.734047 7.699997 -31.185974 0.409860 1.971546 -16.856352 0.289064 1.181894 -12.268674 0.000002 0.000001 0.000002 2.762034 12.563049 -28.905647 0.489061 2.684769 -29.145496 0.075599 1.534723 -6.768756 -0.000003 -0.000000 -0.000000 -0.720954 7.212206 3.228444 9.311059 1.000386 74.378854 -0.000011 37.517013 0.000001 42.008836 22.553032 -19.519082 16.841621 -8.321099 -13.432988 4.846298 -3.051012 -15.491569 -13.648614 7.104287 9.100223 -0.000001 0.000000 -0.000004 -0.397095 1.200437 6.221315 0.643732 -3.406758 26.887612 -0.166358 -0.605221 17.574094 0.000001 0.000000 -0.000000 -0.305941 -4.611016 17.693168 1.181639 -4.370580 38.030142 0.820771 -3.073464 31.059411 -0.000000 -0.000001 -0.000002 1.581149 -9.088058 37.145369 0.711444 -2.591489 23.761716 -0.131295 -0.205982 20.177424 0.000002 -0.000000 0.000001 2.891107 -10.941725 42.600679 1.625528 -4.345531 49.274327 -0.372042 -2.623235 43.450535 -0.000000 -0.000001 0.000001 -6.592017 9.228024 -4.390758 17.948849 -7.087439 -0.605746 -7.706062 -4.521245 4.558214 -6.384983 0.000005 0.000006 0.000000 0.000000 -0.000000 -38.836794 -4.733214 -2.810782 35.729741 8.919082 -4.667642 8.611116 -16.293671 6.970509 -1.794347 0.000017 0.000006 -0.000001 -0.000001 -0.000000 
0.146032 3.446615 3.474179 1.109647 2.353184 2.412245 2.310677 -1.438148 0.636050 2.022459 -3.016108 -0.363089 -2.542247 -3.008744 -1.002648 -4.030598 0.398952 -2.222240 -1.463838 1.761628 -1.099333 -0.000000 0.000000 -0.000000 7.194640 -20.732640 -1.038652 3.093696 -2.344934 -66.225091 0.000007 -36.033968 -0.000000 26.650794 -11.212485 6.111953 26.823611 7.075373 30.417377 -3.822097 26.254308 -15.309439 9.048203 -15.012004 8.320886 0.000001 0.000000 -0.000002 7.981739 1.949245 -3.346836 0.267116 2.469950 -16.865062 -0.020161 0.183507 -3.900364 0.000003 0.000001 -0.000000 0.390598 6.861840 -13.457505 0.602418 3.421733 -26.865733 0.264642 1.824028 -15.749559 -0.000003 -0.000001 -0.000001 0.768183 7.762708 -31.167089 0.409880 1.971609 -16.856950 0.289097 1.181969 -12.269423 0.000000 -0.000000 0.000001 2.726104 12.491710 -28.932985 0.487767 2.681911 -29.114460 0.075034 1.531647 -6.737720 0.000001 -0.000001 -0.000000 -0.789989 6.061502 4.162102 10.733263 -0.404905 73.878277 -0.000004 36.178324 0.000010 42.444766 21.403113 -17.618903 17.030119 -8.816252 -13.385958 4.987049 -2.375083 -15.716672 -13.594185 6.927326 9.116457 0.000000 -0.000003 -0.000005 -0.268261 1.283343 5.148907 0.653594 -3.426131 27.103297 -0.164051 -0.627565 17.789158 0.000000 -0.000000 0.000000 -0.225551 -4.699430 16.527393 1.180484 -4.369060 38.010915 0.819834 -3.071914 31.041335 -0.000000 0.000000 -0.000004 1.570875 -9.088992 36.192199 0.711964 -2.592425 23.772429 -0.131164 -0.207063 20.188038 -0.000001 -0.000001 -0.000001 2.881259 -10.985163 41.871027 1.635892 -4.356048 49.421135 -0.366575 -2.638853 43.596643 -0.000000 -0.000002 0.000000 -4.841560 9.661080 -3.116325 17.971638 -7.123019 -0.700183 -8.633666 -6.500507 4.239089 -7.238405 0.000000 0.000006 -0.000000 0.000000 -0.000000 -40.070842 -6.506260 -2.550024 29.518609 9.380667 -4.658541 7.528760 -14.132828 6.505159 -2.197706 -0.000008 -0.000004 0.000001 0.000004 0.000000 
